#N canvas -9 -9 1920 966 16;
#X obj 572 350 makenote;
#X obj 589 432 noteout 1;
#X obj 670 131 dumpOSC 8000;
#X obj 405 232 print;
#X obj 612 203 route /note;
#X obj 760 203 route /pdout;
#X obj 934 200 route /volume;
#X obj 767 361 pgmout 1;
#X floatatom 946 323 5 0 0 0 - - -;
#X obj 818 241 bng 15 250 50 0 empty empty empty 17 7 0 10 -262144
-1 -1;
#X floatatom 627 286 5 0 0 0 - - -;
#X floatatom 827 307 5 0 0 0 - - -;
#X obj 1106 198 route /note2;
#X obj 1012 243 * 3;
#X connect 0 0 1 0;
#X connect 0 1 1 1;
#X connect 2 0 4 0;
#X connect 2 0 5 0;
#X connect 2 0 6 0;
#X connect 2 0 12 0;
#X connect 4 0 0 0;
#X connect 5 0 7 0;
#X connect 8 0 0 2;
#X connect 9 0 8 0;
#X connect 9 0 11 0;
#X connect 9 0 10 0;
#X connect 10 0 0 0;
#X connect 11 0 0 1;
#X connect 12 0 13 0;
#X connect 13 0 0 0;
